<svg width="120" height="40" viewBox="0 0 120 40" fill="none" xmlns="http://www.w3.org/2000/svg">
<path d="M110.134 0.00013H9.53465C9.16795 0.00013 8.80565 0.00013 8.43992 0.00212999C8.13377 0.00412999 7.83006 0.00993997 7.52097 0.01483C6.84949 0.0227317 6.17959 0.081806 5.51708 0.191539C4.85551 0.303662 4.21466 0.515044 3.61621 0.818537C3.01849 1.1246 2.47234 1.52229 1.99756 1.99719C1.5203 2.47076 1.12246 3.01814 0.819347 3.61828C0.515399 4.21723 0.304639 4.85905 0.194349 5.52159C0.0830107 6.1833 0.0230983 6.85263 0.01515 7.52359C0.00586998 7.83018 0.00488998 8.1378 0 8.44444V31.5586C0.00488998 31.8691 0.00586998 32.1699 0.01515 32.4805C0.0231007 33.1514 0.0830131 33.8207 0.194349 34.4824C0.304335 35.1453 0.515106 35.7875 0.819347 36.3867C1.12232 36.9849 1.52022 37.5301 1.99756 38.001C2.47054 38.478 3.01704 38.876 3.61621 39.1797C4.21465 39.484 4.85543 39.6967 5.51708 39.8105C6.1797 39.9194 6.84953 39.9785 7.52097 39.9873C7.83006 39.9941 8.13377 39.998 8.43992 39.998C8.80564 40 9.16797 40 9.53465 40H110.134C110.494 40 110.859 40 111.218 39.998C111.523 39.998 111.836 39.9941 112.14 39.9873C112.81 39.9789 113.479 39.9198 114.14 39.8105C114.804 39.6959 115.447 39.4833 116.048 39.1797C116.647 38.8758 117.193 38.4779 117.666 38.001C118.142 37.5282 118.541 36.9835 118.847 36.3867C119.149 35.7871 119.358 35.145 119.466 34.4824C119.578 33.8207 119.64 33.1515 119.652 32.4805C119.656 32.1699 119.656 31.8691 119.656 31.5586C119.664 31.1953 119.664 30.834 119.664 30.4648V9.53623C119.664 9.17002 119.664 8.80674 119.656 8.44444C119.656 8.1378 119.656 7.83018 119.652 7.52355C119.64 6.85253 119.578 6.18335 119.466 5.52155C119.358 4.8594 119.149 4.21762 118.847 3.61824C118.23 2.41532 117.251 1.43615 116.048 0.818447C115.447 0.515696 114.804 0.304369 114.14 0.191449C113.479 0.0812325 112.811 0.0221377 112.14 0.01469C111.836 0.00980997 111.523 0.00394999 111.218 0.00199999C110.859 0 110.494 0 110.134 0V0.00013Z" fill="white"/>
<path d="M24.9966 19.8894C25.0078 19.0214 25.2384 18.1704 25.6668 17.4155C26.0953 16.6606 26.7077 16.0263 27.4472 15.5717C26.9774 14.9008 26.3577 14.3487 25.6373 13.9592C24.9168 13.5697 24.1154 13.3535 23.2968 13.3279C21.5506 13.1446 19.8577 14.3728 18.9678 14.3728C18.0608 14.3728 16.6907 13.3461 15.2154 13.3765C14.2611 13.4073 13.3311 13.6848 12.5159 14.1819C11.7008 14.6791 11.0283 15.3789 10.564 16.2132C8.55292 19.6951 10.053 24.8125 11.9795 27.6271C12.9434 29.0053 14.0699 30.5449 15.5439 30.4903C16.9863 30.4304 17.525 29.5705 19.2661 29.5705C20.991 29.5705 21.4964 30.4903 23.0003 30.4556C24.5481 30.4304 25.5233 29.0712 26.4533 27.6799C27.1459 26.6979 27.6788 25.6125 28.0323 24.4641C27.1331 24.0837 26.3658 23.4471 25.8259 22.6336C25.2861 21.8201 24.9977 20.8657 24.9966 19.8894Z" fill="black"/>
<path d="M22.156 11.4769C22.9999 10.4638 23.4157 9.16166 23.315 7.84698C22.0257 7.9824 20.8348 8.5986 19.9795 9.5728C19.5613 10.0487 19.241 10.6024 19.037 11.2022C18.8329 11.802 18.749 12.4361 18.7902 13.0683C19.435 13.0749 20.073 12.9351 20.656 12.6595C21.2391 12.3838 21.7519 11.9795 22.156 11.4769Z" fill="black"/>
<path d="M42.3016 27.1397H37.5683L36.4315 30.4961H34.4267L38.9101 18.0781H40.993L45.4764 30.4961H43.4374L42.3016 27.1397ZM38.0585 25.5908H41.8105L39.9609 20.1436H39.9091L38.0585 25.5908Z" fill="black"/>
<path d="M55.159 25.9697C55.159 28.7832 53.6532 30.5908 51.3807 30.5908C50.8051 30.6209 50.2326 30.4883 49.7288 30.2082C49.225 29.9281 48.8102 29.5117 48.5321 29.0068H48.4891V33.4912H46.6307V21.4424H48.4295V22.9483H48.4637C48.7546 22.4458 49.1764 22.0316 49.684 21.7498C50.1916 21.4679 50.7662 21.329 51.3465 21.3477C53.6444 21.3477 55.159 23.1641 55.159 25.9697ZM53.2489 25.9697C53.2489 24.1367 52.3016 22.9317 50.8563 22.9317C49.4364 22.9317 48.4813 24.1621 48.4813 25.9697C48.4813 27.794 49.4364 29.0156 50.8563 29.0156C52.3016 29.0156 53.2488 27.8193 53.2488 25.9697H53.2489Z" fill="black"/>
<path d="M65.1243 25.9697C65.1243 28.7832 63.618 30.5908 61.3455 30.5908C60.7699 30.6209 60.1974 30.4883 59.6936 30.2082C59.1898 29.9281 58.7751 29.5117 58.4969 29.0068H58.4539V33.4912H56.5955V21.4424H58.3943V22.9483H58.4285C58.7195 22.4458 59.1412 22.0316 59.6488 21.7498C60.1564 21.4679 60.731 21.329 61.3113 21.3477C63.6092 21.3477 65.1243 23.1641 65.1243 25.9697ZM63.2137 25.9697C63.2137 24.1367 62.2664 22.9317 60.8211 22.9317C59.4012 22.9317 58.4461 24.1621 58.4461 25.9697C58.4461 27.794 59.4012 29.0156 60.8211 29.0156C62.2664 29.0156 63.2137 27.8193 63.2137 25.9697Z" fill="black"/>
<path d="M71.7092 27.0362C71.8469 28.2676 73.0432 29.0762 74.678 29.0762C76.2444 29.0762 77.3713 28.2676 77.3713 27.1572C77.3713 26.1933 76.6916 25.6162 75.0823 25.2207L73.4729 24.833C71.1926 24.2822 70.1341 23.2158 70.1341 21.4853C70.1341 19.3428 72.0012 17.8711 74.6516 17.8711C77.2766 17.8711 79.0754 19.3428 79.136 21.4853H77.26C77.1477 20.2461 76.1233 19.498 74.6262 19.498C73.1291 19.498 72.1047 20.2549 72.1047 21.3564C72.1047 22.2344 72.759 22.751 74.3596 23.1464L75.7278 23.4824C78.2756 24.0849 79.3332 25.1084 79.3332 26.9247C79.3332 29.248 77.4836 30.7031 74.5402 30.7031C71.7863 30.7031 69.927 29.2822 69.8069 27.0361L71.7092 27.0362Z" fill="black"/>
<path d="M83.3459 19.2999V21.4424H85.0676V22.9141H83.3459V27.9053C83.3459 28.6807 83.6907 29.042 84.4475 29.042C84.6519 29.0385 84.8559 29.0241 85.0588 28.999V30.4619C84.7185 30.5255 84.3727 30.5543 84.0266 30.5478C82.1936 30.5478 81.4787 29.8594 81.4787 28.1035V22.9141H80.1623V21.4424H81.4787V19.2999H83.3459Z" fill="black"/>
<path d="M86.0637 25.9697C86.0637 23.1211 87.7414 21.3311 90.3576 21.3311C92.9826 21.3311 94.6525 23.121 94.6525 25.9697C94.6525 28.8262 92.9914 30.6084 90.3576 30.6084C87.7248 30.6084 86.0637 28.8261 86.0637 25.9697ZM92.759 25.9697C92.759 24.0156 91.8635 22.8623 90.3576 22.8623C88.8518 22.8623 87.9563 24.0244 87.9563 25.9697C87.9563 27.9316 88.8518 29.0761 90.3576 29.0761C91.8635 29.0761 92.759 27.9316 92.759 25.9697H92.759Z" fill="black"/>
<path d="M96.1848 21.4424H97.9572V22.9834H98.0002C98.1201 22.5021 98.4021 22.0768 98.7987 21.7789C99.1952 21.481 99.6823 21.3287 100.178 21.3476C100.392 21.3469 100.606 21.3702 100.815 21.417V23.1553C100.544 23.0726 100.262 23.0347 99.9797 23.043C99.7097 23.032 99.4405 23.0796 99.1907 23.1825C98.9408 23.2854 98.7162 23.4411 98.5323 23.639C98.3483 23.8369 98.2093 24.0723 98.1249 24.3289C98.0404 24.5856 98.0126 24.8575 98.0431 25.126V30.4961H96.1847L96.1848 21.4424Z" fill="black"/>
<path d="M109.383 27.8369C109.133 29.4804 107.532 30.6084 105.485 30.6084C102.851 30.6084 101.216 28.8437 101.216 26.0127C101.216 23.1728 102.86 21.3311 105.406 21.3311C107.911 21.3311 109.486 23.0517 109.486 25.7969V26.4336H103.092V26.5459C103.062 26.8791 103.104 27.2147 103.214 27.5306C103.325 27.8464 103.501 28.1352 103.731 28.3778C103.961 28.6203 104.241 28.8111 104.55 28.9374C104.86 29.0637 105.193 29.1226 105.528 29.1103C105.967 29.1515 106.407 29.0498 106.784 28.8203C107.161 28.5909 107.453 28.246 107.618 27.8369L109.383 27.8369ZM103.101 25.1348H107.627C107.644 24.8352 107.598 24.5353 107.494 24.2541C107.389 23.9729 107.227 23.7164 107.019 23.5006C106.81 23.2849 106.559 23.1145 106.282 23.0003C106.004 22.8861 105.706 22.8305 105.406 22.8369C105.104 22.8351 104.804 22.8932 104.524 23.008C104.244 23.1227 103.989 23.2918 103.775 23.5054C103.56 23.7191 103.391 23.973 103.275 24.2527C103.159 24.5323 103.1 24.8321 103.101 25.1348V25.1348Z" fill="black"/>
<path d="M37.8261 8.73114C38.2157 8.70318 38.6066 8.76204 38.9708 8.90347C39.3349 9.0449 39.6631 9.26538 39.9316 9.549C40.2002 9.83263 40.4025 10.1723 40.5239 10.5436C40.6453 10.9149 40.6828 11.3085 40.6337 11.696C40.6337 13.6022 39.6034 14.698 37.8261 14.698H35.6708V8.73114H37.8261ZM36.5976 13.8541H37.7226C38.001 13.8708 38.2796 13.8251 38.5381 13.7205C38.7966 13.6159 39.0286 13.4549 39.2171 13.2494C39.4056 13.0438 39.5459 12.7988 39.6277 12.5322C39.7096 12.2656 39.731 11.984 39.6903 11.7081C39.728 11.4333 39.7045 11.1535 39.6214 10.8889C39.5382 10.6242 39.3976 10.3812 39.2095 10.1773C39.0215 9.97333 38.7906 9.81353 38.5336 9.70929C38.2765 9.60506 37.9995 9.55897 37.7226 9.57434H36.5976V13.8541Z" fill="black"/>
<path d="M41.6805 12.4444C41.6522 12.1485 41.6861 11.8499 41.7799 11.5678C41.8738 11.2858 42.0255 11.0264 42.2255 10.8065C42.4254 10.5865 42.6691 10.4107 42.941 10.2904C43.2128 10.1702 43.5068 10.108 43.8041 10.108C44.1013 10.108 44.3953 10.1702 44.6672 10.2904C44.939 10.4107 45.1827 10.5865 45.3827 10.8065C45.5826 11.0264 45.7344 11.2858 45.8282 11.5678C45.922 11.8499 45.9559 12.1485 45.9276 12.4444C45.9564 12.7406 45.923 13.0396 45.8294 13.3221C45.7358 13.6047 45.5841 13.8645 45.3841 14.0849C45.1842 14.3053 44.9403 14.4814 44.6681 14.602C44.396 14.7225 44.1017 14.7848 43.8041 14.7848C43.5064 14.7848 43.2121 14.7225 42.94 14.602C42.6679 14.4814 42.424 14.3053 42.224 14.0849C42.024 13.8645 41.8723 13.6047 41.7787 13.3221C41.6851 13.0396 41.6517 12.7406 41.6805 12.4444ZM45.0135 12.4444C45.0135 11.4683 44.575 10.8975 43.8055 10.8975C43.0331 10.8975 42.5985 11.4683 42.5985 12.4444C42.5985 13.4283 43.0331 13.9947 43.8055 13.9947C44.5751 13.9947 45.0135 13.4244 45.0135 12.4444H45.0135Z" fill="black"/>
<path d="M51.5731 14.6978H50.6512L49.7206 11.3814H49.6503L48.7235 14.6978H47.8104L46.5692 10.1949H47.4706L48.2772 13.6309H48.3436L49.2694 10.1949H50.1219L51.0477 13.6309H51.118L51.9207 10.1949H52.8094L51.5731 14.6978Z" fill="black"/>
<path d="M53.8534 10.1949H54.7088V10.9102H54.7752C54.8879 10.6533 55.0779 10.4379 55.3188 10.2941C55.5596 10.1503 55.8394 10.0852 56.119 10.1079C56.3381 10.0915 56.5581 10.1245 56.7627 10.2046C56.9673 10.2847 57.1512 10.4098 57.3009 10.5706C57.4506 10.7315 57.5622 10.924 57.6274 11.1338C57.6926 11.3436 57.7097 11.5654 57.6776 11.7827V14.6977H56.7889V12.0059C56.7889 11.2823 56.4744 10.9224 55.8172 10.9224C55.6685 10.9155 55.52 10.9408 55.3819 10.9966C55.2438 11.0525 55.1195 11.1375 55.0174 11.2459C54.9152 11.3542 54.8378 11.4834 54.7902 11.6246C54.7427 11.7657 54.7263 11.9154 54.742 12.0635V14.6978H53.8533L53.8534 10.1949Z" fill="black"/>
<path d="M59.0936 8.43707H59.9822V14.6978H59.0936V8.43707Z" fill="black"/>
<path d="M61.2176 12.4444C61.1893 12.1485 61.2232 11.8499 61.317 11.5678C61.4109 11.2857 61.5627 11.0264 61.7626 10.8064C61.9626 10.5864 62.2063 10.4107 62.4782 10.2904C62.7501 10.1701 63.0441 10.108 63.3414 10.108C63.6386 10.108 63.9327 10.1701 64.2045 10.2904C64.4764 10.4107 64.7201 10.5864 64.9201 10.8064C65.12 11.0264 65.2718 11.2857 65.3657 11.5678C65.4595 11.8499 65.4934 12.1485 65.4651 12.4444C65.4939 12.7407 65.4605 13.0396 65.3668 13.3222C65.2732 13.6047 65.1215 13.8645 64.9215 14.0849C64.7215 14.3053 64.4776 14.4814 64.2055 14.602C63.9333 14.7225 63.639 14.7848 63.3414 14.7848C63.0437 14.7848 62.7494 14.7225 62.4773 14.602C62.2051 14.4814 61.9612 14.3053 61.7612 14.0849C61.5612 13.8645 61.4095 13.6047 61.3159 13.3222C61.2223 13.0396 61.1888 12.7407 61.2176 12.4444ZM64.5506 12.4444C64.5506 11.4684 64.1121 10.8976 63.3426 10.8976C62.5701 10.8976 62.1356 11.4684 62.1356 12.4444C62.1356 13.4283 62.5702 13.9947 63.3426 13.9947C64.1121 13.9947 64.5506 13.4244 64.5506 12.4444H64.5506Z" fill="black"/>
<path d="M66.4007 13.4244C66.4007 12.6138 67.0042 12.1465 68.0755 12.0801L69.2952 12.0098V11.6211C69.2952 11.1456 68.9808 10.877 68.3733 10.877C67.8772 10.877 67.5335 11.0591 67.4349 11.3775H66.5745C66.6653 10.6041 67.3929 10.108 68.4143 10.108C69.5433 10.108 70.18 10.67 70.18 11.6211V14.6978H69.3245V14.065H69.2542C69.1115 14.292 68.9111 14.477 68.6735 14.6012C68.4358 14.7254 68.1695 14.7844 67.9017 14.772C67.7126 14.7916 67.5216 14.7715 67.3408 14.7128C67.16 14.6541 66.9936 14.5582 66.8522 14.4312C66.7108 14.3042 66.5975 14.149 66.5198 13.9756C66.442 13.8022 66.4014 13.6144 66.4007 13.4244ZM69.2952 13.0396V12.6631L68.1956 12.7334C67.5755 12.7749 67.2942 12.9859 67.2942 13.3828C67.2942 13.7881 67.6458 14.024 68.1292 14.024C68.2709 14.0383 68.4139 14.024 68.55 13.9819C68.686 13.9398 68.8121 13.8708 68.9209 13.779C69.0297 13.6871 69.1189 13.5743 69.1832 13.4473C69.2475 13.3203 69.2856 13.1816 69.2952 13.0396Z" fill="black"/>
<path d="M71.3479 12.4444C71.3479 11.0216 72.0794 10.1202 73.2171 10.1202C73.4985 10.1072 73.7778 10.1746 74.0223 10.3145C74.2668 10.4544 74.4665 10.661 74.5979 10.9102H74.6643V8.43707H75.553V14.6978H74.7014V13.9864H74.6311C74.4895 14.2339 74.2829 14.4379 74.0337 14.5764C73.7844 14.7149 73.502 14.7825 73.2171 14.772C72.0716 14.7721 71.3479 13.8707 71.3479 12.4444ZM72.2659 12.4444C72.2659 13.3995 72.7161 13.9742 73.4691 13.9742C74.2181 13.9742 74.681 13.3912 74.681 12.4483C74.681 11.5098 74.2132 10.9185 73.4691 10.9185C72.721 10.9185 72.2659 11.4971 72.2659 12.4444H72.2659Z" fill="black"/>
<path d="M79.2297 12.4444C79.2014 12.1485 79.2353 11.8499 79.3291 11.5678C79.4229 11.2858 79.5747 11.0264 79.7746 10.8065C79.9746 10.5865 80.2183 10.4107 80.4902 10.2904C80.762 10.1702 81.056 10.108 81.3533 10.108C81.6505 10.108 81.9445 10.1702 82.2164 10.2904C82.4882 10.4107 82.7319 10.5865 82.9319 10.8065C83.1318 11.0264 83.2836 11.2858 83.3774 11.5678C83.4713 11.8499 83.5051 12.1485 83.4768 12.4444C83.5056 12.7406 83.4722 13.0396 83.3786 13.3221C83.285 13.6047 83.1333 13.8645 82.9334 14.0849C82.7334 14.3053 82.4895 14.4814 82.2173 14.602C81.9452 14.7225 81.6509 14.7848 81.3533 14.7848C81.0556 14.7848 80.7613 14.7225 80.4892 14.602C80.2171 14.4814 79.9732 14.3053 79.7732 14.0849C79.5732 13.8645 79.4215 13.6047 79.3279 13.3221C79.2343 13.0396 79.2009 12.7406 79.2297 12.4444ZM82.5627 12.4444C82.5627 11.4683 82.1243 10.8975 81.3547 10.8975C80.5823 10.8975 80.1477 11.4683 80.1477 12.4444C80.1477 13.4283 80.5823 13.9947 81.3547 13.9947C82.1243 13.9947 82.5627 13.4244 82.5627 12.4444Z" fill="black"/>
<path d="M84.6692 10.1949H85.5246V10.9102H85.5911C85.7037 10.6533 85.8937 10.4379 86.1346 10.2941C86.3754 10.1503 86.6552 10.0852 86.9348 10.1079C87.1539 10.0915 87.3739 10.1245 87.5785 10.2046C87.7831 10.2847 87.967 10.4098 88.1167 10.5706C88.2664 10.7315 88.378 10.924 88.4432 11.1338C88.5084 11.3436 88.5255 11.5654 88.4934 11.7827V14.6977H87.6047V12.0059C87.6047 11.2823 87.2903 10.9224 86.633 10.9224C86.4843 10.9155 86.3358 10.9408 86.1977 10.9966C86.0597 11.0525 85.9353 11.1375 85.8332 11.2459C85.7311 11.3542 85.6536 11.4834 85.6061 11.6246C85.5585 11.7657 85.5421 11.9154 85.5578 12.0635V14.6978H84.6692V10.1949Z" fill="black"/>
<path d="M93.5148 9.07379V10.2154H94.4904V10.9639H93.5148V13.2793C93.5148 13.751 93.7092 13.9576 94.1516 13.9576C94.2648 13.9572 94.378 13.9504 94.4904 13.9371V14.6773C94.3308 14.7058 94.1691 14.721 94.007 14.7227C93.0188 14.7227 92.6252 14.375 92.6252 13.5069V10.9639H91.9104V10.2153H92.6252V9.07379H93.5148Z" fill="black"/>
<path d="M95.7043 8.43707H96.5851V10.9185H96.6554C96.7736 10.6592 96.9688 10.4426 97.2145 10.2983C97.4602 10.1539 97.7444 10.0888 98.0284 10.1119C98.2464 10.1 98.4643 10.1364 98.6666 10.2184C98.8689 10.3005 99.0505 10.4262 99.1987 10.5865C99.3468 10.7468 99.4577 10.9379 99.5235 11.146C99.5893 11.3542 99.6083 11.5742 99.5792 11.7906V14.6978H98.6897V12.0098C98.6897 11.2906 98.3547 10.9263 97.7268 10.9263C97.574 10.9138 97.4204 10.9348 97.2766 10.9878C97.1329 11.0409 97.0024 11.1247 96.8944 11.2335C96.7864 11.3422 96.7035 11.4732 96.6514 11.6174C96.5994 11.7615 96.5794 11.9153 96.593 12.0679V14.6978H95.7043L95.7043 8.43707Z" fill="black"/>
<path d="M104.761 13.482C104.64 13.8935 104.379 14.2495 104.022 14.4877C103.665 14.7258 103.236 14.831 102.81 14.7847C102.513 14.7926 102.218 14.7357 101.946 14.6182C101.673 14.5007 101.43 14.3253 101.232 14.1041C101.034 13.883 100.886 13.6214 100.8 13.3376C100.713 13.0538 100.689 12.7545 100.73 12.4605C100.69 12.1656 100.714 11.8657 100.801 11.581C100.887 11.2964 101.034 11.0336 101.231 10.8105C101.428 10.5874 101.67 10.4093 101.942 10.2881C102.214 10.1669 102.508 10.1054 102.806 10.108C104.059 10.108 104.815 10.964 104.815 12.378V12.6881H101.635V12.7379C101.621 12.9031 101.642 13.0694 101.696 13.2262C101.75 13.3829 101.836 13.5267 101.949 13.6481C102.062 13.7696 102.199 13.8661 102.352 13.9315C102.504 13.9969 102.668 14.0297 102.834 14.0279C103.047 14.0534 103.262 14.0151 103.453 13.9179C103.644 13.8207 103.801 13.669 103.905 13.482L104.761 13.482ZM101.635 12.0308H103.909C103.921 11.8797 103.9 11.7279 103.849 11.5852C103.798 11.4425 103.718 11.312 103.613 11.2021C103.509 11.0923 103.383 11.0055 103.243 10.9473C103.103 10.8891 102.952 10.8609 102.801 10.8643C102.647 10.8624 102.495 10.8913 102.352 10.9492C102.21 11.0071 102.081 11.093 101.972 11.2017C101.863 11.3104 101.777 11.4398 101.72 11.5822C101.662 11.7246 101.633 11.8771 101.635 12.0308H101.635Z" fill="black"/>
</svg>
