<svg width="129" height="40" viewBox="0 0 129 40" fill="none" xmlns="http://www.w3.org/2000/svg">
<path d="M124.664 40H4.66367C2.46367 40 0.663666 38.2 0.663666 36V4C0.663666 1.8 2.46367 0 4.66367 0H124.664C126.864 0 128.664 1.8 128.664 4V36C128.664 38.2 126.864 40 124.664 40Z" fill="white"/>
<path fill-rule="evenodd" clip-rule="evenodd" d="M10.4637 19.6V9.1C10.4637 8.5 10.9637 8 11.4637 8C11.9637 8 12.1637 8.1 12.4637 8.3L31.7637 18.9C32.1637 19.1 32.3636 19.4 32.3636 19.7C32.3636 20 32.1637 20.3 31.7637 20.5L12.4637 31.1C12.2637 31.2 11.9637 31.4 11.4637 31.4C10.9637 31.4 10.4637 30.9 10.4637 30.3V19.6Z" fill="url(#paint0_linear)"/>
<path fill-rule="evenodd" clip-rule="evenodd" d="M22.9637 19.7L11.2637 8C11.3637 8 11.3637 8 11.4637 8C11.9637 8 12.1637 8.1 12.4637 8.3L26.6637 16.1L22.9637 19.7Z" fill="url(#paint1_linear)"/>
<path fill-rule="evenodd" clip-rule="evenodd" d="M26.5636 23.2L22.9637 19.6L26.6637 15.9L31.7637 18.7C32.1637 18.9 32.3636 19.2 32.3636 19.5C32.3636 19.8 32.1637 20.1 31.7637 20.3L26.5636 23.2Z" fill="url(#paint2_linear)"/>
<path fill-rule="evenodd" clip-rule="evenodd" d="M11.3636 31.2L22.9637 19.6L26.5636 23.2L12.4637 30.9C12.1637 31.1 11.9636 31.2 11.3636 31.2C11.4636 31.2 11.4636 31.2 11.3636 31.2Z" fill="url(#paint3_linear)"/>
<path fill-rule="evenodd" clip-rule="evenodd" d="M114.964 32.3H114.864V32.2H114.964H114.864V32.3H114.964Z" fill="white"/>
<path fill-rule="evenodd" clip-rule="evenodd" d="M115.164 32.3C115.164 32.2 115.164 32.2 115.164 32.3C115.064 32.2 115.064 32.2 115.164 32.3C115.064 32.3 115.064 32.3 115.164 32.3ZM115.164 32.2C115.164 32.3 115.164 32.3 115.164 32.2C115.164 32.3 115.064 32.3 115.164 32.2C115.064 32.2 115.164 32.2 115.164 32.2Z" fill="white"/>
<path fill-rule="evenodd" clip-rule="evenodd" d="M115.264 32.2H115.164H115.264V32.3V32.2Z" fill="white"/>
<path fill-rule="evenodd" clip-rule="evenodd" d="M71.7637 33.9C71.2637 33.5 70.8637 32.8 70.6637 32.4L72.2637 31.7C72.3637 31.9 72.5637 32.2 72.7637 32.5C73.1637 32.9 73.7637 33.3 74.3637 33.3C74.9637 33.3 75.6637 33 76.0637 32.5C76.3637 32 76.5637 31.5 76.5637 30.8V30.2C75.3637 31.7 72.8637 31.5 71.4637 29.9C69.9637 28.3 69.9637 25.6 71.4637 24C72.9637 22.5 75.1637 22.3 76.4637 23.7V23H78.1637V30.5C78.1637 32.4 77.4637 33.5 76.5637 34.2C75.9637 34.7 75.0637 34.9 74.2637 34.9C73.3637 34.8 72.4637 34.5 71.7637 33.9ZM113.664 34.3L115.364 30.3L112.364 23.4H114.064L116.164 28.3L118.264 23.4H119.964L115.364 34.3H113.664ZM105.564 30.5C105.064 30 104.864 29.3 104.864 28.6C104.864 28 105.064 27.4 105.464 27C106.164 26.3 107.164 26 108.264 26C108.964 26 109.564 26.1 110.064 26.4C110.064 25.2 109.064 24.7 108.264 24.7C107.564 24.7 106.864 25.1 106.564 25.8L105.064 25.2C105.364 24.5 106.164 23.2 108.164 23.2C109.164 23.2 110.164 23.5 110.764 24.2C111.364 24.9 111.564 25.7 111.564 26.8V31H109.864V30.3C109.664 30.6 109.264 30.8 108.964 31C108.564 31.2 108.064 31.3 107.564 31.3C106.964 31.2 106.064 31 105.564 30.5ZM52.2637 26.9C52.2637 24.9 53.7637 22.7 56.4637 22.7C59.0637 22.7 60.6637 24.9 60.6637 26.9C60.6637 28.9 59.1637 31.1 56.4637 31.1C53.7637 31.1 52.2637 28.9 52.2637 26.9ZM61.2637 26.9C61.2637 24.9 62.7637 22.7 65.4637 22.7C68.0637 22.7 69.6637 24.9 69.6637 26.9C69.6637 28.9 68.1637 31.1 65.4637 31.1C62.8637 31.1 61.2637 28.9 61.2637 26.9ZM40.9637 29.1C38.4637 26.6 38.5637 22.5 41.0637 19.9C42.3637 18.6 43.9637 18 45.6637 18C47.2637 18 48.8637 18.6 50.0637 19.8L48.8637 21.1C47.0637 19.3 44.1637 19.4 42.4637 21.2C40.6637 23.1 40.6637 26 42.4637 27.9C44.2637 29.8 47.2637 29.9 49.0637 28C49.6637 27.4 49.8637 26.6 49.9637 25.8H45.7637V24H51.6637C51.7637 24.4 51.7637 24.9 51.7637 25.4C51.7637 26.9 51.1637 28.4 50.1637 29.4C49.0637 30.5 47.4637 31.1 45.8637 31.1C44.0637 31 42.2637 30.4 40.9637 29.1ZM83.2637 29.8C81.7637 28.2 81.7637 25.5 83.2637 23.8C84.7637 22.2 87.2637 22.2 88.6637 23.8C89.1637 24.3 89.4637 25 89.7637 25.7L84.2637 28C84.5637 28.7 85.2637 29.3 86.2637 29.3C87.1637 29.3 87.7637 29 88.3637 28.1L89.8637 29.1C89.6637 29.3 89.4637 29.5 89.3637 29.7C87.6637 31.4 84.7637 31.4 83.2637 29.8ZM93.6637 31V19.9H97.2637C99.3637 19.9 101.064 21.4 101.064 23.2C101.064 25 99.5637 26.5 97.6637 26.5H95.4637V30.9H93.6637V31ZM102.064 31V19.9H103.764V31H102.064ZM79.4637 30.8V18.4H81.2637V30.8H79.4637ZM109.964 27.7C109.564 27.4 108.964 27.3 108.364 27.3C107.164 27.3 106.464 27.9 106.464 28.6C106.464 29.3 107.164 29.7 107.864 29.7C108.864 29.7 109.964 28.9 109.964 27.7ZM58.7637 26.9C58.7637 25.7 57.9637 24.4 56.4637 24.4C54.9637 24.4 54.1637 25.7 54.1637 26.9C54.1637 28.1 54.9637 29.4 56.4637 29.4C57.8637 29.4 58.7637 28.1 58.7637 26.9ZM67.7637 26.9C67.7637 25.7 66.9637 24.4 65.4637 24.4C63.9637 24.4 63.1637 25.7 63.1637 26.9C63.1637 28.1 63.9637 29.4 65.4637 29.4C66.9637 29.4 67.7637 28.1 67.7637 26.9ZM76.6637 27.6C76.6637 27.5 76.6637 27.4 76.7637 27.3C76.7637 27.2 76.7637 27 76.7637 26.9C76.7637 26.8 76.7637 26.6 76.7637 26.5V26.4C76.7637 26.3 76.6637 26.1 76.6637 26C76.3637 25 75.4637 24.3 74.5637 24.3C73.3637 24.3 72.3637 25.5 72.3637 26.8C72.3637 28.2 73.3637 29.3 74.6637 29.3C75.4637 29.4 76.2637 28.7 76.6637 27.6ZM83.9637 26.7L87.6637 25.1C87.2637 24.4 86.6637 24.2 86.1637 24.2C84.6637 24.3 83.7637 25.9 83.9637 26.7ZM99.2637 23.3C99.2637 22.3 98.4637 21.6 97.3637 21.6H95.3637V25.1H97.4637C98.4637 25.1 99.2637 24.3 99.2637 23.3Z" fill="black"/>
<path fill-rule="evenodd" clip-rule="evenodd" d="M68.3637 10.1C68.3637 8.40001 69.5637 7.20001 71.2637 7.20001C72.9637 7.20001 74.1637 8.40001 74.1637 10.1C74.1637 11.8 72.9637 13 71.2637 13C69.5637 13 68.3637 11.7 68.3637 10.1ZM73.0637 10.1C73.0637 8.90001 72.3637 8.10001 71.1637 8.10001C70.0637 8.10001 69.2637 9.00001 69.2637 10.1C69.2637 11.3 69.9637 12.1 71.1637 12.1C72.3637 12.1 73.0637 11.2 73.0637 10.1ZM39.5637 10.1C39.5637 8.30002 40.8637 7.20002 42.4637 7.20002C43.5637 7.20002 44.2637 7.70002 44.7637 8.40002L43.9637 8.90002C43.6637 8.50002 43.1637 8.20002 42.4637 8.20002C41.3637 8.20002 40.5637 9.00002 40.5637 10.2C40.5637 11.4 41.3637 12.2 42.4637 12.2C43.0637 12.2 43.5637 11.9 43.7637 11.7V10.8H42.1637V9.90002H44.8637V12C44.3637 12.6 43.5637 13 42.5637 13C40.8637 13 39.5637 11.8 39.5637 10.1ZM46.0637 12.9V7.30001H49.8637V8.20001H46.9637V9.60001H49.7637V10.5H46.9637V12.1H49.8637V13L46.0637 12.9ZM52.6637 8.20001V12.9H53.6637V8.20001H55.3637V7.30001H50.9637V8.20001H52.6637ZM58.7637 12.9V7.30001H59.7637V12.9H58.7637ZM62.4637 8.20001V12.9H63.4637V8.20001H65.1637V7.30001H60.7637V8.20001H62.4637ZM76.2637 8.90001L79.1637 12.9H80.1637V7.30001H79.1637V11.2L76.2637 7.30001H75.2637V12.9H76.2637V8.90001Z" fill="black"/>
<defs>
<linearGradient id="paint0_linear" x1="16.9311" y1="6.5736" x2="22.5293" y2="29.5645" gradientUnits="userSpaceOnUse">
<stop stop-color="#006884"/>
<stop offset="1" stop-color="#8AD1D0"/>
</linearGradient>
<linearGradient id="paint1_linear" x1="10.1044" y1="9.8438" x2="25.3604" y2="18.0913" gradientUnits="userSpaceOnUse">
<stop stop-color="#24BBB6"/>
<stop offset="1" stop-color="#DBE692"/>
</linearGradient>
<linearGradient id="paint2_linear" x1="27.6581" y1="23.6201" x2="27.6581" y2="15.6717" gradientUnits="userSpaceOnUse">
<stop stop-color="#FCC072"/>
<stop offset="1" stop-color="#F58A5B"/>
</linearGradient>
<linearGradient id="paint3_linear" x1="13.0583" y1="33.2691" x2="25.11" y2="21.0039" gradientUnits="userSpaceOnUse">
<stop stop-color="#712B8F"/>
<stop offset="1" stop-color="#EA1D27"/>
</linearGradient>
</defs>
</svg>
