<svg width="129" height="40" viewBox="0 0 129 40" fill="none" xmlns="http://www.w3.org/2000/svg">
<path d="M124.664 40H4.66406C2.46406 40 0.664062 38.2 0.664062 36V4C0.664062 1.8 2.46406 0 4.66406 0H124.664C126.864 0 128.664 1.8 128.664 4V36C128.664 38.2 126.864 40 124.664 40Z" fill="black"/>
<path fill-rule="evenodd" clip-rule="evenodd" d="M10.4641 19.6V9.1C10.4641 8.5 10.9641 8 11.4641 8C11.9641 8 12.1641 8.1 12.4641 8.3L31.7641 18.9C32.1641 19.1 32.364 19.4 32.364 19.7C32.364 20 32.1641 20.3 31.7641 20.5L12.4641 31.1C12.2641 31.2 11.9641 31.4 11.4641 31.4C10.9641 31.4 10.4641 30.9 10.4641 30.3V19.6Z" fill="url(#paint0_linear)"/>
<path fill-rule="evenodd" clip-rule="evenodd" d="M22.964 19.7L11.264 8C11.364 8 11.364 8 11.464 8C11.964 8 12.164 8.1 12.464 8.3L26.664 16.1L22.964 19.7Z" fill="url(#paint1_linear)"/>
<path fill-rule="evenodd" clip-rule="evenodd" d="M26.564 23.1999L22.9641 19.5999L26.664 15.8999L31.7641 18.6999C32.1641 18.8999 32.364 19.1999 32.364 19.4999C32.364 19.7999 32.1641 20.0999 31.7641 20.2999L26.564 23.1999Z" fill="url(#paint2_linear)"/>
<path fill-rule="evenodd" clip-rule="evenodd" d="M11.3641 31.2001L22.9641 19.6001L26.5641 23.2001L12.4641 30.9001C12.1641 31.1001 11.9641 31.2001 11.3641 31.2001C11.4641 31.2001 11.4641 31.2001 11.3641 31.2001Z" fill="url(#paint3_linear)"/>
<path fill-rule="evenodd" clip-rule="evenodd" d="M71.7641 33.9C71.2641 33.5 70.8641 32.8 70.6641 32.4L72.2641 31.7C72.3641 31.9 72.5641 32.2 72.7641 32.5C73.1641 32.9 73.7641 33.3 74.3641 33.3C74.9641 33.3 75.6641 33 76.0641 32.5C76.3641 32 76.5641 31.5 76.5641 30.8V30.2C75.3641 31.7 72.864 31.5 71.464 29.9C69.964 28.3 69.964 25.6 71.464 24C72.964 22.5 75.164 22.3 76.464 23.7V23H78.1641V30.5C78.1641 32.4 77.4641 33.5 76.5641 34.2C75.9641 34.7 75.0641 34.9 74.2641 34.9C73.3641 34.8 72.4641 34.5 71.7641 33.9ZM113.664 34.3L115.364 30.3L112.364 23.4H114.064L116.164 28.3L118.264 23.4H119.964L115.364 34.3H113.664ZM105.564 30.5C105.064 30 104.864 29.3 104.864 28.6C104.864 28 105.064 27.4 105.464 27C106.164 26.3 107.164 26 108.264 26C108.964 26 109.564 26.1 110.064 26.4C110.064 25.2 109.064 24.7 108.264 24.7C107.564 24.7 106.864 25.1 106.564 25.8L105.064 25.2C105.364 24.5 106.164 23.2 108.164 23.2C109.164 23.2 110.164 23.5 110.764 24.2C111.364 24.9 111.564 25.7 111.564 26.8V31H109.864V30.3C109.664 30.6 109.264 30.8 108.964 31C108.564 31.2 108.064 31.3 107.564 31.3C106.964 31.2 106.064 31 105.564 30.5ZM52.2641 26.9C52.2641 24.9 53.7641 22.7 56.4641 22.7C59.0641 22.7 60.6641 24.9 60.6641 26.9C60.6641 28.9 59.1641 31.1 56.4641 31.1C53.7641 31.1 52.2641 28.9 52.2641 26.9ZM61.2641 26.9C61.2641 24.9 62.7641 22.7 65.4641 22.7C68.0641 22.7 69.6641 24.9 69.6641 26.9C69.6641 28.9 68.1641 31.1 65.4641 31.1C62.8641 31.1 61.2641 28.9 61.2641 26.9ZM40.9641 29.1C38.4641 26.6 38.5641 22.5 41.0641 19.9C42.3641 18.6 43.9641 18 45.6641 18C47.2641 18 48.8641 18.6 50.0641 19.8L48.8641 21.1C47.0641 19.3 44.1641 19.4 42.4641 21.2C40.6641 23.1 40.6641 26 42.4641 27.9C44.2641 29.8 47.2641 29.9 49.0641 28C49.6641 27.4 49.8641 26.6 49.9641 25.8H45.7641V24H51.6641C51.7641 24.4 51.7641 24.9 51.7641 25.4C51.7641 26.9 51.1641 28.4 50.1641 29.4C49.0641 30.5 47.4641 31.1 45.8641 31.1C44.0641 31 42.2641 30.4 40.9641 29.1ZM83.2641 29.8C81.7641 28.2 81.7641 25.5 83.2641 23.8C84.7641 22.2 87.2641 22.2 88.6641 23.8C89.1641 24.3 89.4641 25 89.7641 25.7L84.2641 28C84.5641 28.7 85.2641 29.3 86.2641 29.3C87.1641 29.3 87.7641 29 88.3641 28.1L89.8641 29.1C89.6641 29.3 89.4641 29.5 89.3641 29.7C87.6641 31.4 84.7641 31.4 83.2641 29.8ZM93.6641 31V19.9H97.2641C99.3641 19.9 101.064 21.4 101.064 23.2C101.064 25 99.5641 26.5 97.6641 26.5H95.464V30.9H93.6641V31ZM102.064 31V19.9H103.764V31H102.064ZM79.464 30.8V18.4H81.2641V30.8H79.464ZM109.964 27.7C109.564 27.4 108.964 27.3 108.364 27.3C107.164 27.3 106.464 27.9 106.464 28.6C106.464 29.3 107.164 29.7 107.864 29.7C108.864 29.7 109.964 28.9 109.964 27.7ZM58.7641 26.9C58.7641 25.7 57.9641 24.4 56.4641 24.4C54.9641 24.4 54.1641 25.7 54.1641 26.9C54.1641 28.1 54.9641 29.4 56.4641 29.4C57.8641 29.4 58.7641 28.1 58.7641 26.9ZM67.7641 26.9C67.7641 25.7 66.9641 24.4 65.4641 24.4C63.9641 24.4 63.1641 25.7 63.1641 26.9C63.1641 28.1 63.9641 29.4 65.4641 29.4C66.9641 29.4 67.7641 28.1 67.7641 26.9ZM76.6641 27.6C76.6641 27.5 76.6641 27.4 76.7641 27.3C76.7641 27.2 76.7641 27 76.7641 26.9C76.7641 26.8 76.7641 26.6 76.7641 26.5V26.4C76.7641 26.3 76.6641 26.1 76.6641 26C76.3641 25 75.4641 24.3 74.5641 24.3C73.3641 24.3 72.3641 25.5 72.3641 26.8C72.3641 28.2 73.3641 29.3 74.6641 29.3C75.4641 29.4 76.2641 28.7 76.6641 27.6ZM83.964 26.7L87.6641 25.1C87.2641 24.4 86.6641 24.2 86.1641 24.2C84.6641 24.3 83.764 25.9 83.964 26.7ZM99.2641 23.3C99.2641 22.3 98.4641 21.6 97.3641 21.6H95.3641V25.1H97.464C98.464 25.1 99.2641 24.3 99.2641 23.3Z" fill="white"/>
<path fill-rule="evenodd" clip-rule="evenodd" d="M114.964 32.2999H114.864V32.2H114.964H114.864V32.2999H114.964Z" fill="white"/>
<path fill-rule="evenodd" clip-rule="evenodd" d="M115.164 32.2999C115.164 32.1999 115.164 32.1999 115.164 32.2999C115.064 32.1999 115.064 32.1999 115.164 32.2999C115.064 32.2999 115.064 32.2999 115.164 32.2999ZM115.164 32.2C115.164 32.3 115.164 32.3 115.164 32.2C115.164 32.3 115.064 32.3 115.164 32.2C115.064 32.2 115.164 32.2 115.164 32.2Z" fill="white"/>
<path fill-rule="evenodd" clip-rule="evenodd" d="M115.264 32.2H115.164H115.264V32.2999V32.2Z" fill="white"/>
<path d="M39.5641 10.1C39.5641 8.29995 40.8641 7.19995 42.4641 7.19995C43.5641 7.19995 44.2641 7.69995 44.7641 8.39995L43.9641 8.89995C43.6641 8.49995 43.1641 8.19995 42.4641 8.19995C41.3641 8.19995 40.5641 8.99995 40.5641 10.2C40.5641 11.4 41.3641 12.2 42.4641 12.2C43.0641 12.2 43.5641 11.9 43.7641 11.7V10.7999H42.1641V9.89995H44.8641V12C44.3641 12.6 43.5641 13 42.5641 13C40.8641 13 39.5641 11.8 39.5641 10.1Z" fill="white"/>
<path d="M46.0641 12.9V7.30005H49.8641V8.20005H46.9641V9.60005H49.7641V10.5H46.9641V12.1H49.8641V13L46.0641 12.9Z" fill="white"/>
<path d="M52.664 12.9V8.20005H50.9641V7.30005H55.364V8.20005H53.664V12.9H52.664Z" fill="white"/>
<path d="M58.764 12.9V7.30005H59.764V12.9H58.764Z" fill="white"/>
<path d="M62.464 12.9V8.20005H60.764V7.30005H65.164V8.20005H63.464V12.9H62.464Z" fill="white"/>
<path d="M68.3641 10.1C68.3641 8.39995 69.5641 7.19995 71.2641 7.19995C72.9641 7.19995 74.1641 8.39995 74.1641 10.1C74.1641 11.8 72.9641 13 71.2641 13C69.5641 13 68.3641 11.7 68.3641 10.1ZM73.0641 10.1C73.0641 8.89995 72.3641 8.09995 71.1641 8.09995C70.0641 8.09995 69.2641 8.99995 69.2641 10.1C69.2641 11.3 69.9641 12.1 71.1641 12.1C72.3641 12.1 73.0641 11.2 73.0641 10.1Z" fill="white"/>
<path d="M79.164 12.9L76.264 8.90005V12.9H75.264V7.30005H76.264L79.164 11.2001V7.30005H80.164V12.9H79.164Z" fill="white"/>
<defs>
<linearGradient id="paint0_linear" x1="16.9314" y1="6.5736" x2="22.5297" y2="29.5645" gradientUnits="userSpaceOnUse">
<stop stop-color="#006884"/>
<stop offset="1" stop-color="#8AD1D0"/>
</linearGradient>
<linearGradient id="paint1_linear" x1="10.1047" y1="9.8438" x2="25.3607" y2="18.0913" gradientUnits="userSpaceOnUse">
<stop stop-color="#24BBB6"/>
<stop offset="1" stop-color="#DBE692"/>
</linearGradient>
<linearGradient id="paint2_linear" x1="27.6584" y1="23.62" x2="27.6584" y2="15.6716" gradientUnits="userSpaceOnUse">
<stop stop-color="#FCC072"/>
<stop offset="1" stop-color="#F58A5B"/>
</linearGradient>
<linearGradient id="paint3_linear" x1="13.0588" y1="33.2692" x2="25.1105" y2="21.004" gradientUnits="userSpaceOnUse">
<stop stop-color="#712B8F"/>
<stop offset="1" stop-color="#EA1D27"/>
</linearGradient>
</defs>
</svg>
