<svg width="113" height="36" viewBox="0 0 113 36" fill="none" xmlns="http://www.w3.org/2000/svg">
<path d="M0 10C0 4.47715 4.47715 0 10 0H26.6667C27.403 0 28 0.596954 28 1.33333V1.33333C28 16.0609 16.0609 28 1.33333 28V28C0.596954 28 0 27.403 0 26.6667V10Z" fill="#1D4ED8"/>
<path d="M8 18C8 12.4772 12.4772 8 18 8H34.6667C35.403 8 36 8.59695 36 9.33333V9.33333C36 24.0609 24.0609 36 9.33333 36V36C8.59695 36 8 35.403 8 34.6667V18Z" fill="#2563EB"/>
<path d="M59.4492 14.2383C57.6328 14.2383 56.2383 15.1523 55.5586 16.6289H55.4883V14.4375H52.1133V31.1016H55.5352V24.8906H55.6055C56.2734 26.3086 57.6797 27.1992 59.5078 27.1992C62.6484 27.1992 64.5938 24.7617 64.5938 20.7188C64.5938 16.6641 62.6367 14.2383 59.4492 14.2383ZM58.3008 24.4453C56.625 24.4453 55.5234 22.9922 55.5234 20.7188C55.5234 18.4688 56.625 16.9805 58.3008 16.9805C60.0117 16.9805 61.0898 18.4453 61.0898 20.7188C61.0898 23.0039 60.0117 24.4453 58.3008 24.4453ZM68.1211 12.7383C69.1172 12.7383 69.9023 11.9414 69.9023 10.9805C69.9023 10.0078 69.1172 9.22266 68.1211 9.22266C67.125 9.22266 66.3398 10.0078 66.3398 10.9805C66.3398 11.9414 67.125 12.7383 68.1211 12.7383ZM66.4219 27H69.8438V14.4375H66.4219V27ZM79.4648 14.2383C77.6484 14.2383 76.2539 15.1523 75.5742 16.6289H75.5039V14.4375H72.1289V31.1016H75.5508V24.8906H75.6211C76.2891 26.3086 77.6953 27.1992 79.5234 27.1992C82.6641 27.1992 84.6094 24.7617 84.6094 20.7188C84.6094 16.6641 82.6523 14.2383 79.4648 14.2383ZM78.3164 24.4453C76.6406 24.4453 75.5391 22.9922 75.5391 20.7188C75.5391 18.4688 76.6406 16.9805 78.3164 16.9805C80.0273 16.9805 81.1055 18.4453 81.1055 20.7188C81.1055 23.0039 80.0273 24.4453 78.3164 24.4453ZM93.7148 14.2383C91.8984 14.2383 90.5039 15.1523 89.8242 16.6289H89.7539V14.4375H86.3789V31.1016H89.8008V24.8906H89.8711C90.5391 26.3086 91.9453 27.1992 93.7734 27.1992C96.9141 27.1992 98.8594 24.7617 98.8594 20.7188C98.8594 16.6641 96.9023 14.2383 93.7148 14.2383ZM92.5664 24.4453C90.8906 24.4453 89.7891 22.9922 89.7891 20.7188C89.7891 18.4688 90.8906 16.9805 92.5664 16.9805C94.2773 16.9805 95.3555 18.4453 95.3555 20.7188C95.3555 23.0039 94.2773 24.4453 92.5664 24.4453ZM108.949 23.1562C108.633 24.1172 107.672 24.7383 106.418 24.7383C104.672 24.7383 103.535 23.5078 103.535 21.7148V21.5039H112.195V20.4609C112.195 16.6406 109.887 14.168 106.23 14.168C102.516 14.168 100.172 16.7695 100.172 20.7773C100.172 24.7969 102.492 27.2695 106.359 27.2695C109.465 27.2695 111.715 25.6172 112.09 23.1562H108.949ZM106.266 16.6992C107.789 16.6992 108.832 17.8008 108.902 19.4062H103.57C103.688 17.8359 104.766 16.6992 106.266 16.6992Z" fill="black"/>
</svg>
